<svg width="24" height="24" viewBox="0 0 24 24" fill="none" xmlns="http://www.w3.org/2000/svg">
<path d="M9 16.9995C9 16.9995 16 17.9995 19 20.9995H20C20.5523 20.9995 21 20.5518 21 19.9995V13.9365C21.8626 13.7145 22.5 12.9314 22.5 11.9995C22.5 11.0676 21.8626 10.2845 21 10.0625V3.99951C21 3.44723 20.5523 2.99951 20 2.99951H19C16 5.99951 9 6.99951 9 6.99951H5C3.89543 6.99951 3 7.89494 3 8.99951V14.9995C3 16.1041 3.89543 16.9995 5 16.9995H6L7 21.9995H9V16.9995ZM11 8.66071C11.6833 8.51411 12.5275 8.31144 13.4393 8.04324C15.1175 7.54965 17.25 6.77213 19 5.57409V18.4249C17.25 17.2269 15.1175 16.4494 13.4393 15.9558C12.5275 15.6876 11.6833 15.4849 11 15.3383V8.66071ZM5 8.99951H9V14.9995H5V8.99951Z" fill="#99150E"/>
</svg>
