<svg width="24" height="24" viewBox="0 0 24 24" fill="none" xmlns="http://www.w3.org/2000/svg">
<path d="M9 16.9996C9 16.9996 16 17.9996 19 20.9996H20C20.5523 20.9996 21 20.5519 21 19.9996V13.9366C21.8626 13.7146 22.5 12.9315 22.5 11.9996C22.5 11.0677 21.8626 10.2846 21 10.0626V3.99963C21 3.44735 20.5523 2.99963 20 2.99963H19C16 5.99963 9 6.99963 9 6.99963H5C3.89543 6.99963 3 7.89506 3 8.99963V14.9996C3 16.1042 3.89543 16.9996 5 16.9996H6L7 21.9996H9V16.9996ZM11 8.66083C11.6833 8.51423 12.5275 8.31156 13.4393 8.04336C15.1175 7.54977 17.25 6.77225 19 5.57421V18.425C17.25 17.227 15.1175 16.4495 13.4393 15.9559C12.5275 15.6877 11.6833 15.485 11 15.3384V8.66083ZM5 8.99963H9V14.9996H5V8.99963Z" fill="black"/>
</svg>
