<svg width="30" height="24" viewBox="0 0 30 24" fill="none" xmlns="http://www.w3.org/2000/svg">
<path fill-rule="evenodd" clip-rule="evenodd" d="M11.25 2C16.0825 2 20 5.13401 20 9C20 12.866 16.0825 16 11.25 16C10.1997 16 9.19529 15.8524 8.26558 15.5826C7.85578 15.4636 7.40009 15.437 6.9556 15.5244C5.76173 15.759 4.54296 15.9078 3.31383 15.9686C3.77603 14.9944 3.93572 13.9412 3.77324 12.9008C3.73709 12.6694 3.64248 12.4664 3.53008 12.2985C2.87308 11.3167 2.5 10.1947 2.5 9C2.5 5.13401 6.41751 2 11.25 2ZM22.5 9C22.5 4.02944 17.4632 0 11.25 0C5.0368 0 0 4.02944 0 9C0 10.5167 0.469973 11.9485 1.30077 13.2044C1.43044 14.1303 1.19015 15.0682 0.609164 15.8816L0.557895 15.9533C-0.0935006 16.8653 0.729604 18 2.04254 18C3.87736 18 5.70166 17.8251 7.47741 17.4812C8.65831 17.8174 9.92883 18 11.25 18C17.4632 18 22.5 13.9706 22.5 9ZM25.444 8.25812C24.9163 8.61423 24.8494 9.24512 25.2945 9.66727C26.6714 10.973 27.5 12.6578 27.5 14.5C27.5 15.7826 27.0986 16.9872 26.3918 18.0408C26.2785 18.2097 26.1845 18.4124 26.1481 18.6425C25.9694 19.7732 26.1523 20.9185 26.674 21.9723C25.3161 21.9111 23.9695 21.7493 22.6515 21.4894C22.2066 21.4016 21.7497 21.4281 21.3385 21.5481C20.3378 21.8402 19.2561 22 18.125 22C15.8222 22 13.7162 21.3371 12.0841 20.2356C11.5564 19.8795 10.7678 19.9331 10.3226 20.3552C9.87752 20.7774 9.94444 21.4083 10.4721 21.7644C12.5383 23.1587 15.2105 24 18.125 24C19.5279 24 20.8765 23.805 22.1291 23.4461C24.0169 23.8133 25.9568 24 27.9079 24C29.2429 24 30.0798 22.8462 29.4175 21.919L29.4175 21.9189L29.363 21.8427C28.735 20.9635 28.4767 19.9491 28.6201 18.9484C29.5013 17.6203 30 16.1053 30 14.5C30 12.1684 28.9484 10.0307 27.2055 8.3777C26.7603 7.95555 25.9717 7.90202 25.444 8.25812ZM6.25 10C6.94036 10 7.5 9.55229 7.5 9C7.5 8.44771 6.94036 8 6.25 8C5.55964 8 5 8.44771 5 9C5 9.55229 5.55964 10 6.25 10ZM12.5 9C12.5 9.55229 11.9404 10 11.25 10C10.5596 10 10 9.55229 10 9C10 8.44771 10.5596 8 11.25 8C11.9404 8 12.5 8.44771 12.5 9ZM16.25 10C16.9404 10 17.5 9.55229 17.5 9C17.5 8.44771 16.9404 8 16.25 8C15.5596 8 15 8.44771 15 9C15 9.55229 15.5596 10 16.25 10Z" fill="black"/>
</svg>
