<svg version="1.1" xmlns="http://www.w3.org/2000/svg" xmlns:xlink="http://www.w3.org/1999/xlink" width="49" height="35" viewBox="0,0,256,182.85417"><g fill="#99150e" fill-rule="nonzero" stroke="none" stroke-width="1" stroke-linecap="butt" stroke-linejoin="miter" stroke-miterlimit="10" stroke-dasharray="" stroke-dashoffset="0" font-family="none" font-weight="none" font-size="none" text-anchor="none" style="mix-blend-mode: normal"><g transform="translate(0,-0.00149) scale(5.22449,5.22449)"><path d="M12.4688,35c-3.31776,0 -6.15239,-1.1484 -8.50396,-3.4453c-2.35156,-2.2969 -3.52734,-5.1042 -3.52734,-8.4219c0,-2.8437 0.85677,-5.3776 2.57031,-7.6016c1.71354,-2.2239 3.95573,-3.6458 6.72657,-4.2656c0.91142,-3.35414 2.73442,-6.07029 5.46872,-8.14841c2.7344,-2.07813 5.8334,-3.11719 9.2969,-3.11719c4.2656,0 7.8841,1.48568 10.8555,4.45703c2.9713,2.97136 4.457,6.58987 4.457,10.85547c2.5156,0.2917 4.6029,1.3763 6.2617,3.2539c1.6589,1.8776 2.4883,4.0742 2.4883,6.5898c0,2.7344 -0.957,5.0586 -2.8711,6.9727c-1.9141,1.9141 -4.2383,2.8711 -6.9726,2.8711h-12.0313c-1.2031,0 -2.2331,-0.4284 -3.0898,-1.2852c-0.8568,-0.8567 -1.2852,-1.8867 -1.2852,-3.0898v-11.2656l-3.5,3.3906l-3.0625,-3.0625l8.75,-8.75l8.75,8.75l-3.0625,3.0625l-3.5,-3.3906v11.2656h12.0313c1.5312,0 2.8255,-0.5286 3.8828,-1.5859c1.0573,-1.0573 1.5859,-2.3516 1.5859,-3.8829c0,-1.5312 -0.5286,-2.8255 -1.5859,-3.8828c-1.0573,-1.0573 -2.3516,-1.5859 -3.8828,-1.5859h-3.2813v-4.375c0,-3.026 -1.0664,-5.60547 -3.1992,-7.73828c-2.1328,-2.13281 -4.7123,-3.19922 -7.7383,-3.19922c-3.026,0 -5.6055,1.06641 -7.7383,3.19922c-2.1328,2.13281 -3.1992,4.71228 -3.1992,7.73828h-1.0937c-2.1146,0 -3.91932,0.7474 -5.41411,2.2422c-1.49479,1.4948 -2.24219,3.2995 -2.24219,5.4141c0,2.1145 0.7474,3.9192 2.24219,5.414c1.49479,1.4948 3.29951,2.2422 5.41411,2.2422h5.4687v4.375z"></path></g></g></svg>